<svg xmlns="http://www.w3.org/2000/svg" viewBox="0 0 121.83 151.35"><title>title</title><g id="text"><polygon id="W" points="0 1 0 0 5 0 5 1 3 1 3 3 4 3 4 5 5 5 5 8 6 8 6 7 7 7 7 5 8 5 8 2 7 2 7 1 6 1 6 0 10 0 10 1 9 1 9 4 10 4 10 6 11 6 11 8 12 8 12 6 13 6 13 3 14 3 14 1 13 1 13 0 16 0 16 1 15 1 15 3 14 3 14 6 13 6 13 8 12 8 12 12 11 12 11 9 10 9 10 7 9 7 9 5 8 5 8 7 7 7 7 9 6 9 6 12 5 12 5 8 4 8 4 6 3 6 3 3 2 3 2 1 0 1 0 1"/><polygon id="A" points="24 0 25 0 25 3 26 3 26 5 27 5 27 8 28 8 28 10 29 10 29 11 31 11 31 12 26 12 26 11 27 11 27 8 21 8 21 10 20 10 20 11 22 11 22 12 18 12 18 11 19 11 19 10 20 10 20 8 21 8 21 6 22 6 22 7 26 7 26 6 25 6 25 4 23 4 23 6 22 6 22 4 23 4 23 2 24 2 24 0"/><polygon id="T" points="34 3 35 3 35 1 38 1 38 11 36 11 36 12 41 12 41 11 39 11 39 1 42 1 42 3 43 3 43 0 34 0 34 3"/><polygon id="E" points="46 0 46 1 48 1 48 11 46 11 46 12 55 12 55 10 56 10 56 9 55 9 55 10 54 10 54 11 49 11 49 6 53 6 53 8 54 8 54 3 55 3 55 1 54 1 54 3 53 3 53 5 49 5 49 1 54 1 54 0 46 0"/><path id="R" d="M59,1V0h7V2h1V5H66V6H65V8h1v2h1v1h3v1H67V11H66V10H65V9H64V7H62v4h2v1H59V11h2V1Zm6,5V5h1V2H65V1H62V6Z"/><polygon id="I" points="71 1 71 0 76 0 76 1 74 1 74 11 76 11 76 12 71 12 71 11 73 11 73 1 71 1"/><polygon id="N" points="81 11 83 11 83 12 78 12 78 11 80 11 80 1 78 1 78 0 81 0 81 1 82 1 82 2 83 2 83 3 84 3 84 4 85 4 85 5 86 5 86 6 87 6 87 7 88 7 88 8 89 8 89 1 87 1 87 0 92 0 92 1 90 1 90 12 89 12 89 10 88 10 88 9 87 9 87 8 86 8 86 7 85 7 85 6 84 6 84 5 83 5 83 4 82 4 82 3 81 3 81 11"/><polygon id="G" points="104 4 105 4 105 0 98 0 98 1 97 1 97 2 96 2 96 3 95 3 95 9 96 9 96 10 97 10 97 11 98 11 98 12 104 12 104 11 105 11 105 6 106 6 106 5 105 5 105 6 104 6 104 5 102 5 102 6 104 6 104 11 98 11 98 10 97 10 97 9 96 9 96 3 97 3 97 2 98 2 98 1 104 1 104 4 104 4"/><polygon id="T-2" data-name="T" points="1 25 2 25 2 23 5 23 5 33 3 33 3 34 8 34 8 33 6 33 6 23 9 23 9 25 10 25 10 22 1 22 1 25"/><polygon id="H" points="13 23 13 22 18 22 18 23 16 23 16 27 22 27 22 23 20 23 20 22 25 22 25 23 23 23 23 33 25 33 25 34 20 34 20 33 22 33 22 28 16 28 16 33 18 33 18 34 13 34 13 33 15 33 15 23 13 23"/><polygon id="E-2" data-name="E" points="28 22 28 23 30 23 30 33 28 33 28 34 37 34 37 32 38 32 38 31 37 31 37 32 36 32 36 33 31 33 31 28 35 28 35 30 36 30 36 25 37 25 37 23 36 23 36 25 35 25 35 27 31 27 31 23 36 23 36 22 28 22"/><path id="p" d="M53,22v1h1v1h1v3H54v1H53v1H50v4h2v1H47V33h2V23H47V22Zm-3,1v5h3V27h1V24H53V23Z"/><polygon id="L" points="58 22 58 23 60 23 60 33 58 33 58 34 66 34 66 33 67 33 67 32 68 32 68 31 67 31 67 32 66 32 66 33 61 33 61 23 63 23 63 22 58 22"/><polygon id="A-2" data-name="A" points="76 22 77 22 77 25 78 25 78 27 79 27 79 30 80 30 80 32 81 32 81 33 83 33 83 34 78 34 78 33 79 33 79 30 73 30 73 32 72 32 72 33 74 33 74 34 70 34 70 33 71 33 71 32 72 32 72 30 73 30 73 28 74 28 74 29 78 29 78 28 77 28 77 26 75 26 75 28 74 28 74 26 75 26 75 24 76 24 76 22"/><polygon id="N-2" data-name="N" points="87 33 89 33 89 34 84 34 84 33 86 33 86 23 84 23 84 22 87 22 87 23 88 23 88 24 89 24 89 25 90 25 90 26 91 26 91 27 92 27 92 28 93 28 93 29 94 29 94 30 95 30 95 23 93 23 93 22 98 22 98 23 96 23 96 34 95 34 95 32 94 32 94 31 93 31 93 30 92 30 92 29 91 29 91 28 90 28 90 27 89 27 89 26 88 26 88 25 87 25 87 33"/><polygon id="T-3" data-name="T" points="101 25 102 25 102 23 105 23 105 33 103 33 103 34 108 34 108 33 106 33 106 23 109 23 109 25 110 25 110 22 101 22 101 25"/><polygon points="113 23 113 26 114 26 114 27 115 27 115 28 116 28 116 29 118 29 118 30 119 30 119 32 118 32 118 33 114 33 114 30 113 30 113 34 118 34 118 33 119 33 119 32 120 32 120 30 119 30 119 28 118 28 118 27 116 27 116 26 114 26 114 23 118 23 118 24 119 24 119 26 120 26 120 22 119 22 119 23 118 23 118 22 114 22 114 23 113 23 113 23"/></g><g id="drops"><path d="M83.83,41.35v1h1v3h1v3h1v8h-1v1h-3v-1h-1v-2h-1v-6h1v-4h1v-3Zm0,3h-1v4h-1v5h1v2h1v1h1v-1h1v-6h-1v-3h-1Z"/><path d="M95.83,79.35h1v1h1v2h1v3h1v3h1v4h-1v2h-1v1h-2v-1h-1v-2h-1v-9h1Zm3,6h-1v-2h-2v8h1v2h2v-1h1v-4h-1Z"/><path d="M115.83,52.35h1v1h1v3h1v2h1v2h1v3h1v3h-1v2h-3v-1h-1v-2h-1Zm1,4v8h1v2h1v1h1v-1h1v-2h-1v-3h-1v-2h-1v-3h-1"/><path d="M89.83,137.35h1v1h1v4h1v7h-1v1h-1v1h-2v-1h-1v-9h1v-3h1Zm0,4h-1v8h1v1h1v-1h1v-6h-1v-4h-1Z"/></g></svg>