<svg id="water" xmlns="http://www.w3.org/2000/svg" width="50" height="28" viewBox="0 0 50 28"><defs><style>.cls-1{fill:blue;}</style></defs><title>water</title><g id="water-2" data-name="water"><polygon class="cls-1" points="3 23 5 23 5 21 7 21 7 19 9 19 9 17 11 17 11 15 22 15 22 17 24 17 24 19 26 19 26 21 28 21 28 23 37 23 37 21 42 21 42 21 42 19 44 19 44 17 46 17 46 15 48 15 48 13 50 13 50 15 48 15 48 17 46 17 46 19 44 19 44 21 42 21 42 23 37 23 37 25 28 25 28 23 26 23 26 21 24 21 24 19 22 19 22 17 11 17 11 19 9 19 9 21 7 21 7 23 5 23 5 25 3 25 3 28 1 28 1 25 3 25 3 23"/><polygon class="cls-1" points="2 10 4 10 4 8 6 8 6 6 8 6 8 4 10 4 10 2 21 2 21 4 23 4 23 6 25 6 25 8 27 8 27 10 36 10 36 8 41 8 41 8 41 6 43 6 43 4 45 4 45 2 47 2 47 0 49 0 49 2 47 2 47 4 45 4 45 6 43 6 43 8 41 8 41 10 36 10 36 12 27 12 27 10 25 10 25 8 23 8 23 6 21 6 21 4 10 4 10 6 8 6 8 8 6 8 6 10 4 10 4 12 2 12 2 15 0 15 0 12 2 12 2 10"/></g></svg>