<svg xmlns="http://www.w3.org/2000/svg" viewBox="0 0 621.21 249.57">
  <defs>
    <style>
      .cls-1{fill:#00f}.cls-2,.cls-4{fill:none}.cls-2,.cls-3,.cls-4{stroke:#000;stroke-miterlimit:10}.cls-4{stroke-width:3px}
    </style>
  </defs>
  <polygon points="215.21 12.57 215.21 11.57 216.21 11.57 216.21 12.57 217.21 12.57 217.21 13.57 218.21 13.57 218.21 14.57 218.21 15.57 220.21 15.57 220.21 16.57 221.21 16.57 221.21 19.57 220.21 19.57 220.21 20.57 220.21 21.57 221.24 21.57 221.21 20.57 222.21 20.57 222.21 19.57 223.21 19.57 225.21 19.57 225.21 20.57 226.21 20.57 226.21 21.57 227.21 21.57 227.21 24.57 226.21 24.57 226.21 25.57 225.21 25.57 225.21 26.57 224.21 26.57 224.21 27.57 221.21 27.57 221.21 25.57 222.21 25.57 222.21 24.57 223.21 24.57 223.21 23.57 224.21 23.57 224.21 22.57 222.21 22.57 222.21 23.57 221.21 23.57 221.21 24.57 218.21 24.57 218.21 23.57 217.21 23.57 217.21 22.57 216.21 22.57 216.21 20.57 217.21 20.57 217.21 19.57 218.21 19.57 218.21 18.57 217.21 18.57 217.21 17.57 216.21 17.57 216.21 16.57 215.21 16.57 215.21 15.57 214.21 15.57 214.21 13.57 214.21 12.57 215.21 12.57" id="squiggle"/>
  <g id="sunset">
    <polygon points="486.21 33.57 486.21 32.61 493.21 32.57 493.21 33.57 494.21 33.57 494.21 34.57 495.21 34.57 495.21 35.57 496.21 35.57 496.21 37.57 497.21 37.57 497.21 42.57 496.21 42.57 496.21 44.57 495.21 44.57 495.21 45.57 495.21 46.57 494.21 46.57 493.21 46.57 493.21 47.57 492.21 47.57 492.21 48.57 494.21 48.57 494.21 49.57 495.21 49.57 495.21 50.57 497.21 50.57 497.21 51.57 495.21 51.57 495.21 50.57 494.21 50.57 494.21 49.57 492.21 49.57 492.21 48.57 486.21 48.57 486.21 47.57 485.21 47.57 484.21 47.57 484.21 46.57 483.21 46.57 483.21 45.57 483.21 44.57 482.21 44.57 482.21 42.57 481.21 42.57 481.21 37.57 482.21 37.57 482.21 35.57 483.21 35.57 483.21 34.57 485.21 34.57 485.21 33.57 486.21 33.57"/>
    <path d="M483.21 47.57h1v4h1v1h1v2h1v2h-1v-2h-1v-2h-1v-1h-1s.02-3.99 0-4ZM487.21 58.57v2h1v-2s-1-.02-1 0ZM506.21 57.57v1h2v-1s-1.97-.02-2 0ZM502.21 54.57v1h2v-1s-2-.02-2 0Z"/>
    <rect x="499.21" y="51.57" width="1" height="1"/>
  </g>
  <g id="glass">
    <path id="glass-2" data-name="glass" d="M156.21 224.57h1v-1h1v-1h3v-1h13v1h3v1h1v1h1v11h-1v3h-1v2h-1v3h-1v2h-1v3h-3v1h-7v-1h-3v-3h-1v-2h-1v-3h-1v-2h-1v-3h-1Zm1 1v2h3v1h3v1h9v-1h4v-1h2v-2h-1v-1h-1v-1h-3v-1h-11v1h-3v1h-1v1Zm0 3v6h1v3h1v2h1v3h1v2h1v3h3v1h5v-1h3v-3h1v-2h1v-3h1v-2h1v-3h1v-6h-1v1h-4v1h-11v-1h-3v-1Z"/>
  </g>
  <g id="liquid_sunshine" data-name="liquid sunshine">
    <rect class="cls-1" x="494.21" y="208.57" width="1" height="1"/>
    <rect class="cls-1" x="497.21" y="208.57" width="4" height="1"/>
    <rect class="cls-1" x="503.21" y="208.57" width="4" height="1"/>
    <rect class="cls-1" x="508.21" y="209.57" width="1" height="1"/>
    <rect class="cls-1" x="511.21" y="211.57" width="1" height="1"/>
    <rect class="cls-1" x="513.21" y="213.57" width="1" height="1"/>
    <rect class="cls-1" x="514.21" y="216.57" width="1" height="4"/>
    <rect class="cls-1" x="512.21" y="221.57" width="1" height="1"/>
    <rect class="cls-1" x="508.21" y="224.57" width="1" height="1"/>
    <rect class="cls-1" x="503.21" y="225.57" width="4" height="1"/>
    <rect class="cls-1" x="497.21" y="225.57" width="4" height="1"/>
    <rect class="cls-1" x="495.21" y="225.57" width="1" height="1"/>
    <rect class="cls-1" x="493.21" y="224.57" width="1" height="1"/>
    <rect class="cls-1" x="489.21" y="222.57" width="1" height="1"/>
    <rect class="cls-1" x="487.21" y="220.57" width="1" height="1"/>
    <rect class="cls-1" x="489.21" y="211.57" width="1" height="1"/>
    <rect class="cls-1" x="491.21" y="209.57" width="1" height="1"/>
    <rect class="cls-1" x="486.21" y="214.57" width="1" height="4"/>
  </g>
  <g id="fertilize">
    <rect class="cls-1" x="31.21" y="121.57" width="1" height="1"/>
    <rect class="cls-1" x="30.21" y="123.57" width="1" height="1"/>
    <rect class="cls-1" x="32.21" y="123.57" width="1" height="1"/>
    <rect class="cls-1" x="30.21" y="127.57" width="1" height="1"/>
    <rect class="cls-1" x="32.21" y="127.57" width="1" height="1"/>
    <rect class="cls-1" x="32.21" y="130.57" width="1" height="1"/>
    <rect class="cls-1" x="34.21" y="131.57" width="1" height="1"/>
    <rect class="cls-1" x="30.21" y="131.57" width="1" height="1"/>
    <rect class="cls-1" x="31.21" y="134.57" width="1" height="1"/>
    <rect class="cls-1" x="30.21" y="137.57" width="1" height="1"/>
    <rect class="cls-1" x="32.21" y="137.57" width="1" height="1"/>
    <rect class="cls-1" x="31.21" y="140.57" width="1" height="1"/>
    <rect class="cls-1" x="30.21" y="142.57" width="1" height="1"/>
    <rect class="cls-1" x="35.21" y="140.57" width="1" height="1"/>
    <rect class="cls-1" x="32.21" y="142.57" width="1" height="1"/>
    <rect class="cls-1" x="36.21" y="142.57" width="1" height="1"/>
    <rect class="cls-1" x="39.21" y="141.57" width="1" height="1"/>
    <rect class="cls-1" x="43.21" y="140.57" width="1" height="1"/>
    <rect class="cls-1" x="42.21" y="142.57" width="1" height="1"/>
    <rect class="cls-1" x="46.21" y="140.57" width="1" height="1"/>
    <rect class="cls-1" x="47.21" y="142.57" width="1" height="1"/>
    <rect class="cls-1" x="50.21" y="142.57" width="1" height="1"/>
    <rect class="cls-1" x="50.21" y="140.57" width="1" height="1"/>
    <rect class="cls-1" x="53.21" y="142.57" width="1" height="1"/>
    <rect class="cls-1" x="50.21" y="137.57" width="1" height="1"/>
    <rect class="cls-1" x="53.21" y="137.57" width="1" height="1"/>
    <rect class="cls-1" x="49.21" y="134.57" width="1" height="1"/>
    <rect class="cls-1" x="51.21" y="133.57" width="1" height="1"/>
    <rect class="cls-1" x="54.21" y="130.57" width="1" height="1"/>
    <rect class="cls-1" x="50.21" y="130.57" width="1" height="1"/>
    <rect class="cls-1" x="35.21" y="122.57" width="1" height="1"/>
    <rect class="cls-1" x="34.21" y="118.57" width="1" height="1"/>
    <rect class="cls-1" x="36.21" y="119.57" width="1" height="1"/>
    <rect class="cls-1" x="41.21" y="122.57" width="1" height="1"/>
    <rect class="cls-1" x="42.21" y="121.57" width="1" height="1"/>
    <rect class="cls-1" x="41.21" y="118.57" width="1" height="1"/>
    <rect class="cls-1" x="45.21" y="119.57" width="1" height="1"/>
    <rect class="cls-1" x="47.21" y="118.57" width="1" height="1"/>
    <rect class="cls-1" x="49.21" y="121.57" width="1" height="1"/>
    <rect class="cls-1" x="45.21" y="122.57" width="1" height="1"/>
    <rect class="cls-1" x="51.21" y="119.57" width="1" height="1"/>
    <rect class="cls-1" x="53.21" y="121.57" width="1" height="1"/>
    <rect class="cls-1" x="50.21" y="125.57" width="1" height="1"/>
    <rect class="cls-1" x="53.21" y="123.57" width="1" height="1"/>
    <rect class="cls-1" x="46.21" y="123.57" width="3" height="1"/>
    <rect class="cls-1" x="52.21" y="127.57" width="1" height="3"/>
    <rect class="cls-1" x="34.21" y="134.57" width="1" height="3"/>
    <rect class="cls-1" x="36.21" y="137.57" width="1" height="1"/>
  </g>
  <g id="water">
    <polygon class="cls-1" points="575.21 43.57 576.21 43.57 576.21 42.57 577.21 42.57 577.21 41.57 578.21 41.57 578.21 40.57 579.21 40.57 579.21 39.57 584.21 39.57 584.21 40.57 585.21 40.57 585.21 41.57 586.21 41.57 586.21 42.57 587.21 42.57 587.21 43.57 591.21 43.57 591.21 42.57 593.21 42.57 593.21 42.57 593.21 41.57 594.21 41.57 594.21 40.57 595.21 40.57 595.21 39.57 596.21 39.57 596.21 38.57 597.21 38.57 597.21 39.57 596.21 39.57 596.21 40.57 595.21 40.57 595.21 41.57 594.21 41.57 594.21 42.57 593.21 42.57 593.21 43.57 591.21 43.57 591.21 44.57 587.21 44.57 587.21 43.57 586.21 43.57 586.21 42.57 585.21 42.57 585.21 41.57 584.21 41.57 584.21 40.57 579.21 40.57 579.21 41.57 578.21 41.57 578.21 42.57 577.21 42.57 577.21 43.57 576.21 43.57 576.21 44.57 575.21 44.57 575.21 45.57 574.21 45.57 574.21 44.57 575.21 44.57 575.21 43.57"/>
    <polygon class="cls-1" points="575.21 49.57 576.21 49.57 576.21 48.57 577.21 48.57 577.21 47.57 578.21 47.57 578.21 46.57 579.21 46.57 579.21 45.57 584.21 45.57 584.21 46.57 585.21 46.57 585.21 47.57 586.21 47.57 586.21 48.57 587.21 48.57 587.21 49.57 591.21 49.57 591.21 48.57 593.21 48.57 593.21 48.57 593.21 47.57 594.21 47.57 594.21 46.57 595.21 46.57 595.21 45.57 596.21 45.57 596.21 44.57 597.21 44.57 597.21 45.57 596.21 45.57 596.21 46.57 595.21 46.57 595.21 47.57 594.21 47.57 594.21 48.57 593.21 48.57 593.21 49.57 591.21 49.57 591.21 50.57 587.21 50.57 587.21 49.57 586.21 49.57 586.21 48.57 585.21 48.57 585.21 47.57 584.21 47.57 584.21 46.57 579.21 46.57 579.21 47.57 578.21 47.57 578.21 48.57 577.21 48.57 577.21 49.57 576.21 49.57 576.21 50.57 575.21 50.57 575.21 51.57 574.21 51.57 574.21 50.57 575.21 50.57 575.21 49.57"/>
  </g>
  <g id="arrows">
    <rect class="cls-2" x="366.71" y="208.07" width="63" height="34"/>
    <rect class="cls-2" x="463.71" y="29.07" width="63" height="34"/>
    <rect x="527.02" y="44.76" width="31.06" height="2.7"/>
    <polygon class="cls-3" points="491.71 84.94 501.63 84.94 496.77 73.78 491.71 84.94"/>
    <polygon class="cls-3" points="579.7 12.13 575.88 18.85 585.71 20.07 579.7 12.13"/>
    <polygon class="cls-3" points="479.02 192.74 475.2 199.46 484.62 200.46 479.02 192.74"/>
    <polygon class="cls-3" points="166.71 91.07 176.71 91.07 171.71 79.07 166.71 91.07"/>
    <polygon class="cls-3" points="374.85 88.31 366.47 93.25 376.13 100.25 374.85 88.31"/>
    <polygon class="cls-3" points="313.06 69.6 304.69 74.54 314.34 81.54 313.06 69.6"/>
    <polygon class="cls-3" points="244.7 47.72 237.22 53.93 247.86 59.3 244.7 47.72"/>
    <polygon class="cls-3" points="162.71 204.07 154.51 207.6 162.71 215.07 162.71 204.07"/>
    <polygon class="cls-3" points="112.71 190.07 104.71 194.07 112.71 201.07 112.71 190.07"/>
    <polygon class="cls-3" points="1.96 135.99 8.7 131.76 0.65 126.26 1.96 135.99"/>
    <path class="cls-4" d="M495 20.8c.21-.42 21.22-19.08 42.54-19.3 22.27-.22 41.18 14.57 41.18 14.57M323.71 65.07c33.69 4.69 47 25.67 47 25.67M257.71 53.07c40 0 51 18.9 51 18.9M187.71 35.07c37.53-1.7 53.76 15.58 53.76 15.58M394.3 200.56c.21-.42 21.22-19.09 42.54-19.3 22.27-.22 40.87 14.81 40.87 14.81M126.71 196.07c29-1 32 10 32 10M72.71 174.07c30 0 36 18 36 18M5.21 133.81c.42.21 17.11 22.18 17.06 43.5-.06 22.27-20.9 46.91-20.9 46.91"/>
    <line class="cls-4" x1="171.71" y1="91.57" x2="171.71" y2="213.57"/>
    <line class="cls-4" x1="496.71" y1="83.57" x2="496.71" y2="194.57"/>
    <rect class="cls-2" x="557.71" y="29.07" width="63" height="34"/>
  </g>
</svg>
