<svg xmlns="http://www.w3.org/2000/svg" viewBox="0 0 25 25">
  <path d="M1 3h1v1H1zM0 5h1v1H0zm2 0h1v1H2zM0 9h1v1H0zm2 0h1v1H2zm0 3h1v1H2zm2 1h1v1H4zm-4 0h1v1H0zm1 3h1v1H1zm-1 3h1v1H0zm2 0h1v1H2zm-1 3h1v1H1zm-1 2h1v1H0zm5-2h1v1H5zm-3 2h1v1H2zm4 0h1v1H6zm3-1h1v1H9zm4-1h1v1h-1zm-1 2h1v1h-1zm4-2h1v1h-1zm1 2h1v1h-1zm3 0h1v1h-1zm0-2h1v1h-1zm3 2h1v1h-1zm-3-5h1v1h-1zm3 0h1v1h-1zm-4-3h1v1h-1zm2-1h1v1h-1zm3-3h1v1h-1zm-4 0h1v1h-1zM5 4h1v1H5zM4 0h1v1H4zm2 1h1v1H6zm5 3h1v1h-1zm1-1h1v1h-1zm-1-3h1v1h-1zm4 1h1v1h-1zm2-1h1v1h-1zm2 3h1v1h-1zm-4 1h1v1h-1zm6-3h1v1h-1zm2 2h1v1h-1zm-3 4h1v1h-1zm3-2h1v1h-1zm-7 0h3v1h-3zm6 4h1v3h-1zM4 16h1v3H4zm2 3h1v1H6z" fill="#00f" data-name="Layer 2"/>
</svg>
