<svg xmlns="http://www.w3.org/2000/svg" viewBox="0 0 41 110"><title>Asset 1</title><g id="Layer_2" data-name="Layer 2"><g id="drops"><path d="M3,0V1H4V4H5V7H6v8H5v1H2V15H1V13H0V7H1V3H2V0ZM3,3H2V7H1v5H2v2H3v1H4V14H5V8H4V5H3Z"/><path d="M15,38h1v1h1v2h1v3h1v3h1v4H19v2H18v1H16V53H15V51H14V42h1Zm3,6H17V42H15v8h1v2h2V51h1V47H18Z"/><path d="M35,11h1v1h1v3h1v2h1v2h1v3h1v3H40v2H37V26H36V24H35Zm1,4v8h1v2h1v1h1V25h1V23H39V20H38V18H37V15H36"/><path d="M9,96h1v1h1v4h1v7H11v1H10v1H8v-1H7v-9H8V97H9Zm0,4H8v8H9v1h1v-1h1v-6H10V98H9Z"/></g></g></svg>