<svg xmlns="http://www.w3.org/2000/svg" viewBox="0 0 920.13 371.57"><defs><style>.cls-1,.cls-3,.cls-5{fill:none;}.cls-1,.cls-3,.cls-4,.cls-5{stroke:#000;stroke-miterlimit:10;}.cls-1{stroke-width:2px;}.cls-2{fill:blue;}.cls-5{stroke-width:3px;}</style></defs><title>diagram</title><g id="squiggle"><polygon points="318.21 11.57 320.21 11.57 320.21 12.57 321.21 12.57 321.21 14.57 322.21 14.59 322.21 15.57 325.21 15.57 325.21 16.57 326.21 16.57 326.21 17.57 327.21 17.57 327.21 21.57 326.21 21.57 326.21 23.57 327.21 23.57 327.21 22.57 329.21 22.57 329.21 21.57 333.21 21.57 333.21 22.57 334.21 22.57 334.21 23.57 335.21 23.57 335.21 24.57 336.21 24.57 336.21 27.57 335.21 27.57 335.21 29.57 334.21 29.57 334.21 30.57 332.21 30.57 332.21 31.57 331.21 31.57 331.21 32.57 327.21 32.57 327.21 29.57 328.21 29.57 328.21 28.57 329.21 28.57 329.21 27.57 330.21 27.57 330.21 26.57 331.21 26.57 331.21 25.57 329.21 25.57 329.21 26.57 327.21 26.57 327.21 27.57 324.21 27.57 324.21 26.57 323.21 26.57 323.21 25.57 322.21 25.57 322.21 20.57 323.21 20.57 323.21 19.57 322.21 19.57 322.21 18.57 319.21 18.57 319.21 17.57 318.21 17.57 318.21 16.57 317.21 16.57 317.21 12.57 318.21 12.57 318.21 11.57"/></g><g id="sunset"><path d="M720.21,48.55v-1h9v1h2v1h1v1h2v2h1v3h1v7h-1v3h-1v2h-3v1h-1v1h-2v1h2v1h1v1h1v1h-2v-1h-1v-1h-1.05l0-1h-5.92v-1h-2v-1h-2v-1h-2v-2h-1v-1h-1v-2h-1v-8h1v-2h1v-2h1v-1h2v-1S720.19,48.52,720.21,48.55Z"/><path d="M715.22,70.57h1v4h1v1h1v1h1v1h1v1h-1v1h-1v-2h-1v-1h-1v-1h-1S715.25,70.58,715.22,70.57Z"/><path d="M719.21,80.65v.92h1v1h1V80.62S719.21,80.7,719.21,80.65Z"/><path d="M721.21,86.55v2h1v-2S721.21,86.52,721.21,86.55Z"/><path d="M749.21,84.57v1h4v-1S749.25,84.53,749.21,84.57Z"/><path d="M743.21,80.6v1h3v-.95S743.21,80.57,743.21,80.6Z"/><rect x="739.21" y="75.57" width="2" height="1"/><rect x="734.21" y="73.57" width="1" height="1"/></g><g id="glass"><line class="cls-1" x1="230.21" y1="334.57" x2="230.21" y2="339.57"/><line class="cls-1" x1="231.21" y1="337.57" x2="231.21" y2="343.57"/><line class="cls-1" x1="231.21" y1="341.57" x2="231.21" y2="347.57"/><line class="cls-1" x1="230.21" y1="334.57" x2="233.21" y2="334.57"/><line class="cls-1" x1="230.21" y1="333.57" x2="234.21" y2="333.57"/><line class="cls-1" x1="233.21" y1="332.57" x2="238.21" y2="332.57"/><line class="cls-1" x1="230.21" y1="338.57" x2="234.21" y2="338.57"/><line class="cls-1" x1="232.21" y1="339.57" x2="235.21" y2="339.57"/><line class="cls-1" x1="235.21" y1="340.57" x2="241.21" y2="340.57"/><line class="cls-1" x1="239.21" y1="341.57" x2="256.21" y2="341.57"/><line class="cls-1" x1="255.21" y1="340.57" x2="262.21" y2="340.57"/><line class="cls-1" x1="262.21" y1="339.57" x2="267.21" y2="339.57"/><line class="cls-1" x1="263.21" y1="338.57" x2="267.21" y2="338.57"/><line class="cls-1" x1="266.21" y1="334.57" x2="266.21" y2="337.57"/><line class="cls-1" x1="264.21" y1="334.57" x2="266.21" y2="334.57"/><line class="cls-1" x1="261.21" y1="333.57" x2="264.21" y2="333.57"/><line class="cls-1" x1="255.21" y1="332.57" x2="262.21" y2="332.57"/><line class="cls-1" x1="235.21" y1="331.57" x2="260.21" y2="331.57"/><line class="cls-1" x1="265.21" y1="337.57" x2="265.21" y2="343.57"/><line class="cls-1" x1="264.21" y1="340.57" x2="264.21" y2="348.57"/><line class="cls-1" x1="263.21" y1="345.57" x2="263.21" y2="352.57"/><line class="cls-1" x1="262.21" y1="350.57" x2="262.21" y2="356.57"/><line class="cls-1" x1="261.21" y1="353.57" x2="261.21" y2="360.57"/><line class="cls-1" x1="260.21" y1="357.57" x2="260.21" y2="364.57"/><line class="cls-1" x1="232.21" y1="344.57" x2="232.21" y2="350.57"/><line class="cls-1" x1="233.21" y1="348.57" x2="233.21" y2="355.57"/><line class="cls-1" x1="234.21" y1="353.57" x2="234.21" y2="359.57"/><line class="cls-1" x1="235.21" y1="357.57" x2="235.21" y2="362.57"/><line class="cls-1" x1="236.21" y1="361.57" x2="236.21" y2="366.57"/><line class="cls-1" x1="259.21" y1="361.57" x2="259.21" y2="367.57"/><line class="cls-1" x1="238.21" y1="364.57" x2="238.21" y2="369.57"/><line class="cls-1" x1="258.21" y1="365.57" x2="258.21" y2="369.57"/><line class="cls-1" x1="257.21" y1="367.57" x2="257.21" y2="370.57"/><line class="cls-1" x1="238.21" y1="367.57" x2="238.21" y2="370.57"/><line class="cls-1" x1="244.21" y1="369.57" x2="237.21" y2="369.57"/><line class="cls-1" x1="258.21" y1="369.57" x2="252.21" y2="369.57"/><line class="cls-1" x1="256.21" y1="370.57" x2="240.21" y2="370.57"/></g><g id="liquid_sunshine" data-name="liquid sunshine"><path class="cls-2" d="M729.21,307.57h2v2h-2A16.66,16.66,0,0,1,729.21,307.57Z"/><path class="cls-2" d="M733.25,307.57h4v2h-4S733.08,307.48,733.25,307.57Z"/><path class="cls-2" d="M739.25,307.57h4v2h-4S739.08,307.48,739.25,307.57Z"/><path class="cls-2" d="M743.21,309.57h2v2h-2A16.66,16.66,0,0,1,743.21,309.57Z"/><path class="cls-2" d="M747.21,311.57h2v2h-2A16.66,16.66,0,0,1,747.21,311.57Z"/><path class="cls-2" d="M749.21,313.57h2v2h-2A16.66,16.66,0,0,1,749.21,313.57Z"/><path class="cls-2" d="M751.21,317.57h2v4h-2S751.13,317.4,751.21,317.57Z"/><path class="cls-2" d="M747.21,323.57h2v2h-2A16.66,16.66,0,0,1,747.21,323.57Z"/><path class="cls-2" d="M745.21,325.57h2v2h-2A16.66,16.66,0,0,1,745.21,325.57Z"/><path class="cls-2" d="M739.29,327.57h3.92v2h-3.92S739.12,327.48,739.29,327.57Z"/><path class="cls-2" d="M733.29,327.57h3.92v2h-3.92S733.12,327.48,733.29,327.57Z"/><path class="cls-2" d="M729.21,327.57h2v2h-2A16.66,16.66,0,0,1,729.21,327.57Z"/><path class="cls-2" d="M727.21,325.57h2v2h-2A16.66,16.66,0,0,1,727.21,325.57Z"/><path class="cls-2" d="M723.21,323.57h2v2h-2A16.66,16.66,0,0,1,723.21,323.57Z"/><path class="cls-2" d="M721.21,321.57h2v2h-2A16.66,16.66,0,0,1,721.21,321.57Z"/><path class="cls-2" d="M723.21,311.57h2v2h-2A16.66,16.66,0,0,1,723.21,311.57Z"/><path class="cls-2" d="M725.21,309.57h2v2h-2A16.66,16.66,0,0,1,725.21,309.57Z"/><path class="cls-2" d="M719.2,315.57h2v4h-2S719.11,315.39,719.2,315.57Z"/></g><g id="fertilize"><path class="cls-2" d="M47.21,178.57v2h2v-2A12.12,12.12,0,0,0,47.21,178.57Z"/><path class="cls-2" d="M45.21,182.57v2h2v-2A12.12,12.12,0,0,0,45.21,182.57Z"/><path class="cls-2" d="M49.21,182.57v2h2v-2A12.12,12.12,0,0,0,49.21,182.57Z"/><path class="cls-2" d="M45.21,188.57v2h2v-2A12.12,12.12,0,0,0,45.21,188.57Z"/><path class="cls-2" d="M49.21,188.57v2h2v-2A12.12,12.12,0,0,0,49.21,188.57Z"/><path class="cls-2" d="M49.21,192.57v2h2v-2A12.12,12.12,0,0,0,49.21,192.57Z"/><path class="cls-2" d="M51.21,194.57v2h2v-2A12.12,12.12,0,0,0,51.21,194.57Z"/><path class="cls-2" d="M45.21,194.57v2h2v-2A12.12,12.12,0,0,0,45.21,194.57Z"/><path class="cls-2" d="M47.21,198.57v2h2v-2A12.12,12.12,0,0,0,47.21,198.57Z"/><path class="cls-2" d="M45.21,202.57v2h2v-2A12.12,12.12,0,0,0,45.21,202.57Z"/><path class="cls-2" d="M49.21,202.57v2h2v-2A12.12,12.12,0,0,0,49.21,202.57Z"/><path class="cls-2" d="M47.21,206.57v2h2v-2A12.12,12.12,0,0,0,47.21,206.57Z"/><path class="cls-2" d="M45.21,210.57v2h2v-2A12.12,12.12,0,0,0,45.21,210.57Z"/><path class="cls-2" d="M53.21,206.57v2h2v-2A12.12,12.12,0,0,0,53.21,206.57Z"/><path class="cls-2" d="M49.21,210.57v2h2v-2A12.12,12.12,0,0,0,49.21,210.57Z"/><path class="cls-2" d="M55.21,210.57v2h2v-2A12.12,12.12,0,0,0,55.21,210.57Z"/><path class="cls-2" d="M59.21,208.57v2h2v-2A12.12,12.12,0,0,0,59.21,208.57Z"/><path class="cls-2" d="M65.21,206.57v2h2v-2A12.12,12.12,0,0,0,65.21,206.57Z"/><path class="cls-2" d="M63.21,210.57v2h2v-2A12.12,12.12,0,0,0,63.21,210.57Z"/><path class="cls-2" d="M69.21,206.57v2h2v-2A12.12,12.12,0,0,0,69.21,206.57Z"/><path class="cls-2" d="M71.21,210.57v2h2v-2A12.12,12.12,0,0,0,71.21,210.57Z"/><path class="cls-2" d="M75.21,210.57v2h2v-2A12.12,12.12,0,0,0,75.21,210.57Z"/><path class="cls-2" d="M75.21,206.57v2h2v-2A12.12,12.12,0,0,0,75.21,206.57Z"/><path class="cls-2" d="M79.21,210.57v2h2v-2A12.12,12.12,0,0,0,79.21,210.57Z"/><path class="cls-2" d="M75.21,202.57v2h2v-2A12.12,12.12,0,0,0,75.21,202.57Z"/><path class="cls-2" d="M79.21,202.57v2h2v-2A12.12,12.12,0,0,0,79.21,202.57Z"/><path class="cls-2" d="M73.21,198.57v2h2v-2A12.12,12.12,0,0,0,73.21,198.57Z"/><path class="cls-2" d="M77.21,196.57v2h2v-2A12.12,12.12,0,0,0,77.21,196.57Z"/><path class="cls-2" d="M81.21,192.57v2h2v-2A12.12,12.12,0,0,0,81.21,192.57Z"/><path class="cls-2" d="M75.21,192.57v2h2v-2A12.12,12.12,0,0,0,75.21,192.57Z"/><path class="cls-2" d="M53.21,180.57v2h2v-2A12.12,12.12,0,0,0,53.21,180.57Z"/><path class="cls-2" d="M51.21,174.57v2h2v-2A12.12,12.12,0,0,0,51.21,174.57Z"/><path class="cls-2" d="M55.21,176.57v2h2v-2A12.12,12.12,0,0,0,55.21,176.57Z"/><path class="cls-2" d="M61.21,180.57v2h2v-2A12.12,12.12,0,0,0,61.21,180.57Z"/><path class="cls-2" d="M63.21,178.57v2h2v-2A12.12,12.12,0,0,0,63.21,178.57Z"/><path class="cls-2" d="M61.21,174.57v2h2v-2A12.12,12.12,0,0,0,61.21,174.57Z"/><path class="cls-2" d="M67.21,176.57v2h2v-2A12.12,12.12,0,0,0,67.21,176.57Z"/><path class="cls-2" d="M71.21,174.57v2h2v-2A12.12,12.12,0,0,0,71.21,174.57Z"/><path class="cls-2" d="M73.21,178.57v2h2v-2A12.12,12.12,0,0,0,73.21,178.57Z"/><path class="cls-2" d="M67.21,180.57v2h2v-2A12.12,12.12,0,0,0,67.21,180.57Z"/><path class="cls-2" d="M77.21,176.57v2h2v-2A12.12,12.12,0,0,0,77.21,176.57Z"/><path class="cls-2" d="M79.21,178.57v2h2v-2A12.12,12.12,0,0,0,79.21,178.57Z"/><path class="cls-2" d="M75.21,184.57v2h2v-2A12.12,12.12,0,0,0,75.21,184.57Z"/><path class="cls-2" d="M79.21,182.57v2h2v-2A12.12,12.12,0,0,0,79.21,182.57Z"/><path class="cls-2" d="M69.22,182.57v2h4v-2S69,182.46,69.22,182.57Z"/><path class="cls-2" d="M79.13,188.63h-2v4h2S79.24,188.4,79.13,188.63Z"/></g><g id="water"><path class="cls-2" d="M850.21,65.57h2v-2h2v-2h2v-2h2v-2h6v2h2v2h4v2h4v-2h4v-2h4v-2h4v2h-4v2h-4v2h-4v2h-4v-2h-4v-2h-2v-2h-6v2h-2v2h-2v2h-2v2h-2Z"/><path class="cls-2" d="M850.21,73.57v2h2v-2h2v-2h2v-2h2v-2h2v-2h4v2h2v2h4v2h4v-2h4v-2h4v-2h4v-2h-4v2h-4v2h-4v2h-4v-2h-4v-2h-2v-2h-4v2h-2v2h-2v2h-2v2h-2v2S850.21,73.6,850.21,73.57Z"/></g><g id="arrows"><rect class="cls-3" x="541.09" y="307.06" width="94.42" height="50.63"/><rect class="cls-3" x="685.88" y="42.03" width="94.42" height="50.63"/><rect class="cls-3" x="825.21" y="41.94" width="94.42" height="50.63"/><rect x="779.81" y="65.8" width="45.84" height="3.66"/><polygon class="cls-4" points="727.91 124.61 742.61 124.61 735.41 108.08 727.91 124.61"/><polygon class="cls-4" points="858.23 17.24 852.57 27.19 866.53 28.68 858.23 17.24"/><polygon class="cls-4" points="709.12 284.73 703.46 294.68 717.42 296.16 709.12 284.73"/><polygon class="cls-4" points="245.96 133.03 260.66 133.03 253.46 116.5 245.96 133.03"/><polygon class="cls-4" points="554.85 130.07 542.44 137.38 556.74 147.75 554.85 130.07"/><polygon class="cls-4" points="463.34 102.36 450.93 109.67 465.23 120.04 463.34 102.36"/><polygon class="cls-4" points="362.1 69.95 351.01 79.15 366.78 87.11 362.1 69.95"/><polygon class="cls-4" points="239.23 301.93 228.48 306.74 239.15 316.47 239.23 301.93"/><polygon class="cls-4" points="165.43 281.15 154.68 285.96 165.35 295.69 165.43 281.15"/><polygon class="cls-4" points="2.59 200.68 12.57 194.42 0.65 186.26 2.59 200.68"/><path class="cls-5" d="M732.78,30.08c.3-.62,31.43-28.26,63-28.58,33-.33,68.21,26.21,68.21,26.21"/><path class="cls-5" d="M479.83,95.13c49.89,7,68.84,38.53,68.84,38.53"/><path class="cls-5" d="M381.71,78.18c60,1.16,75.12,27.69,75.12,27.69"/><path class="cls-5" d="M277.72,50.92C333.3,48.4,357.3,74.29,357.3,74.29"/><path class="cls-5" d="M583.65,296.31c.31-.62,31.43-28.27,63-28.58,33-.33,68.21,26.21,68.21,26.21"/><path class="cls-5" d="M186.15,293.45C237.93,284,236,311.13,236,311.13"/><path class="cls-5" d="M106.39,253.61c48.81-1.21,57,37.95,57,37.95"/><path class="cls-5" d="M7.41,197.45c.61.32,25.34,32.85,25.26,64.42-.08,33-30.95,69.47-30.95,69.47"/><line class="cls-5" x1="252.46" y1="132.4" x2="254.36" y2="315.56"/><line class="cls-5" x1="735.3" y1="121.03" x2="737.2" y2="286.82"/></g></svg>