<svg xmlns="http://www.w3.org/2000/svg" viewBox="0 0 621.71 250.7"><defs><style>.cls-1{fill:blue;}.cls-2,.cls-4{fill:none;}.cls-2,.cls-3,.cls-4{stroke:#000;stroke-miterlimit:10;}.cls-4{stroke-width:3px;}</style></defs><title>diagram</title><g id="squiggle"><polygon points="215.07 8.3 216.42 8.3 216.42 8.98 217.1 8.98 217.1 10.33 217.77 10.34 217.77 11 219.8 11 219.8 11.68 220.47 11.68 220.47 12.35 221.15 12.35 221.15 15.05 220.47 15.05 220.47 16.4 221.15 16.4 221.15 15.73 222.5 15.73 222.5 15.05 225.2 15.05 225.2 15.73 225.88 15.73 225.88 16.4 226.55 16.4 226.55 17.08 227.23 17.08 227.23 19.1 226.55 19.1 226.55 20.45 225.88 20.45 225.88 21.13 224.53 21.13 224.53 21.8 223.85 21.8 223.85 22.48 221.15 22.48 221.15 20.45 221.82 20.45 221.82 19.78 222.5 19.78 222.5 19.1 223.18 19.1 223.18 18.43 223.85 18.43 223.85 17.75 222.5 17.75 222.5 18.43 221.15 18.43 221.15 19.1 219.12 19.1 219.12 18.43 218.45 18.43 218.45 17.75 217.77 17.75 217.77 14.38 218.45 14.38 218.45 13.7 217.77 13.7 217.77 13.03 215.75 13.03 215.75 12.35 215.07 12.35 215.07 11.68 214.4 11.68 214.4 8.98 215.07 8.98 215.07 8.3"/></g><g id="sunset"><path d="M488.15,35.41v-.65h6.08v.67h1.35v.68h.67v.67h1.35v1.35h.68v2H499v4.73h-.68v2h-.68v1.35h-2v.68h-.68v.67h-1.35v.68h1.35V51h.68v.68h.67v.67H494.9v-.67h-.67V51h-.71l0-.67h-4v-.68h-1.35v-.67H486.8v-.68h-1.35V46.91h-.67v-.67h-.68V44.89h-.67V39.48h.67V38.13h.68V36.78h.67v-.67h1.35v-.7Z" transform="translate(-1.64 -2.15)"/><path d="M484.78,50.29h.67V53h.68v.67h.67v.68h.68V55h.67v.68h-.67v.67h-.68V55h-.67v-.67h-.68v-.68h-.67S484.8,50.29,484.78,50.29Z" transform="translate(-1.64 -2.15)"/><path d="M487.48,57.09v.62h.67v.68h.68V57.07S487.48,57.13,487.48,57.09Z" transform="translate(-1.64 -2.15)"/><path d="M488.83,61.07v1.37h.67V61.07S488.83,61.05,488.83,61.07Z" transform="translate(-1.64 -2.15)"/><path d="M507.73,59.74v.68h2.7v-.68S507.76,59.71,507.73,59.74Z" transform="translate(-1.64 -2.15)"/><path d="M503.68,57.06v.65h2v-.64S503.68,57,503.68,57.06Z" transform="translate(-1.64 -2.15)"/><rect x="499.34" y="51.51" width="1.35" height="0.68"/><rect x="495.96" y="50.16" width="0.68" height="0.68"/></g><g id="glass"><path id="glass-2" data-name="glass" d="M156.62,227.87h.68v-1.35h2v-.68h1.35v-.67h17.56v.67h1.35v.68h1.35v.67h1.35v2.7H183v2H181.6v2.7h-.67V238h-.68v2.7h-.67v2.7h-.68v2.7h-.67v2.7h-.68v2h-.67v1.35h-.68v.67H164.05v-.67h-2v-2h-1.35v-2.7H160v-2h-.68v-2.7h-.67v-3.37H158v-2h-.67v-5.4h-.68v-4S156.62,227.69,156.62,227.87Zm1.35,2h2.7v.68h.68v.67h4.05v.68h8.78v-.68h4.72v-.67h.68v-.68h1.35v-1.35h-.68v-.67h-2v-.68h-4v-.67H163.37v.67h-2.7v.68H160v.67h-2Zm.68,2v2.7h.67v2.7H160v3.38h.67v2.7h.68v2.7H162v2h1.35v2.71h3.38v.67h5.4v-.67h2.7v-.68h.68V248.8h.67v-2.7h.68v-2.7h.67v-2.7h.68v-2h.67V235.3h.68v-3.38h-.68v.67h-4.05v.68H163.37v-.68h-2.7v-.67Z" transform="translate(-1.64 -2.15)"/></g><g id="liquid_sunshine" data-name="liquid sunshine"><path class="cls-1" d="M494.23,210.31h1.35v1.35h-1.35A10.13,10.13,0,0,1,494.23,210.31Z" transform="translate(-1.64 -2.15)"/><path class="cls-1" d="M497,210.31h2.67v1.35H497S496.84,210.25,497,210.31Z" transform="translate(-1.64 -2.15)"/><path class="cls-1" d="M501,210.31h2.67v1.35H501S500.89,210.25,501,210.31Z" transform="translate(-1.64 -2.15)"/><path class="cls-1" d="M503.68,211.66H505V213h-1.35A10.13,10.13,0,0,1,503.68,211.66Z" transform="translate(-1.64 -2.15)"/><path class="cls-1" d="M506.38,213h1.35v1.35h-1.35A10.13,10.13,0,0,1,506.38,213Z" transform="translate(-1.64 -2.15)"/><path class="cls-1" d="M507.73,214.36h1.35v1.35h-1.35A10.13,10.13,0,0,1,507.73,214.36Z" transform="translate(-1.64 -2.15)"/><path class="cls-1" d="M509.08,217.06h1.35v2.71h-1.35S509,217,509.08,217.06Z" transform="translate(-1.64 -2.15)"/><path class="cls-1" d="M506.38,221.12h1.35v1.35h-1.35A10.13,10.13,0,0,1,506.38,221.12Z" transform="translate(-1.64 -2.15)"/><path class="cls-1" d="M505,222.47h1.35v1.35H505A10.13,10.13,0,0,1,505,222.47Z" transform="translate(-1.64 -2.15)"/><path class="cls-1" d="M501,223.82h2.65v1.35H501S500.92,223.76,501,223.82Z" transform="translate(-1.64 -2.15)"/><path class="cls-1" d="M497,223.82h2.65v1.35H497S496.86,223.76,497,223.82Z" transform="translate(-1.64 -2.15)"/><path class="cls-1" d="M494.23,223.82h1.35v1.35h-1.35A10.13,10.13,0,0,1,494.23,223.82Z" transform="translate(-1.64 -2.15)"/><path class="cls-1" d="M492.88,222.47h1.35v1.35h-1.35A10.13,10.13,0,0,1,492.88,222.47Z" transform="translate(-1.64 -2.15)"/><path class="cls-1" d="M490.18,221.12h1.35v1.35h-1.35A10.13,10.13,0,0,1,490.18,221.12Z" transform="translate(-1.64 -2.15)"/><path class="cls-1" d="M488.83,219.77h1.35v1.35h-1.35A10.13,10.13,0,0,1,488.83,219.77Z" transform="translate(-1.64 -2.15)"/><path class="cls-1" d="M490.18,213h1.35v1.35h-1.35A10.13,10.13,0,0,1,490.18,213Z" transform="translate(-1.64 -2.15)"/><path class="cls-1" d="M491.53,211.66h1.35V213h-1.35A10.13,10.13,0,0,1,491.53,211.66Z" transform="translate(-1.64 -2.15)"/><path class="cls-1" d="M487.48,215.71h1.35v2.71h-1.35S487.42,215.6,487.48,215.71Z" transform="translate(-1.64 -2.15)"/></g><g id="fertilize"><path class="cls-1" d="M33.73,123.21v1.35h1.35v-1.35A7.59,7.59,0,0,0,33.73,123.21Z" transform="translate(-1.64 -2.15)"/><path class="cls-1" d="M32.38,125.91v1.35h1.35v-1.35A7.59,7.59,0,0,0,32.38,125.91Z" transform="translate(-1.64 -2.15)"/><path class="cls-1" d="M35.08,125.91v1.35h1.35v-1.35A7.59,7.59,0,0,0,35.08,125.91Z" transform="translate(-1.64 -2.15)"/><path class="cls-1" d="M32.38,130v1.35h1.35V130A7.59,7.59,0,0,0,32.38,130Z" transform="translate(-1.64 -2.15)"/><path class="cls-1" d="M35.08,130v1.35h1.35V130A7.59,7.59,0,0,0,35.08,130Z" transform="translate(-1.64 -2.15)"/><path class="cls-1" d="M35.08,132.66V134h1.35v-1.35A8.67,8.67,0,0,0,35.08,132.66Z" transform="translate(-1.64 -2.15)"/><path class="cls-1" d="M36.43,134v1.35h1.35V134A8.68,8.68,0,0,0,36.43,134Z" transform="translate(-1.64 -2.15)"/><path class="cls-1" d="M32.38,134v1.35h1.35V134A8.67,8.67,0,0,0,32.38,134Z" transform="translate(-1.64 -2.15)"/><path class="cls-1" d="M33.73,136.71v1.35h1.35v-1.35A8.67,8.67,0,0,0,33.73,136.71Z" transform="translate(-1.64 -2.15)"/><path class="cls-1" d="M32.38,139.42v1.35h1.35v-1.35A7.59,7.59,0,0,0,32.38,139.42Z" transform="translate(-1.64 -2.15)"/><path class="cls-1" d="M35.08,139.42v1.35h1.35v-1.35A7.59,7.59,0,0,0,35.08,139.42Z" transform="translate(-1.64 -2.15)"/><path class="cls-1" d="M33.73,142.12v1.35h1.35v-1.35A7.59,7.59,0,0,0,33.73,142.12Z" transform="translate(-1.64 -2.15)"/><path class="cls-1" d="M32.38,144.82v1.35h1.35v-1.35A7.59,7.59,0,0,0,32.38,144.82Z" transform="translate(-1.64 -2.15)"/><path class="cls-1" d="M37.78,142.12v1.35h1.35v-1.35A7.6,7.6,0,0,0,37.78,142.12Z" transform="translate(-1.64 -2.15)"/><path class="cls-1" d="M35.08,144.82v1.35h1.35v-1.35A7.59,7.59,0,0,0,35.08,144.82Z" transform="translate(-1.64 -2.15)"/><path class="cls-1" d="M39.13,144.82v1.35h1.35v-1.35A7.6,7.6,0,0,0,39.13,144.82Z" transform="translate(-1.64 -2.15)"/><path class="cls-1" d="M41.83,143.47v1.35h1.36v-1.35A7.71,7.71,0,0,0,41.83,143.47Z" transform="translate(-1.64 -2.15)"/><path class="cls-1" d="M45.89,142.12v1.35h1.35v-1.35A7.59,7.59,0,0,0,45.89,142.12Z" transform="translate(-1.64 -2.15)"/><path class="cls-1" d="M44.54,144.82v1.35h1.35v-1.35A7.59,7.59,0,0,0,44.54,144.82Z" transform="translate(-1.64 -2.15)"/><path class="cls-1" d="M48.59,142.12v1.35h1.35v-1.35A7.59,7.59,0,0,0,48.59,142.12Z" transform="translate(-1.64 -2.15)"/><path class="cls-1" d="M49.94,144.82v1.35h1.35v-1.35A7.59,7.59,0,0,0,49.94,144.82Z" transform="translate(-1.64 -2.15)"/><path class="cls-1" d="M52.64,144.82v1.35H54v-1.35A7.59,7.59,0,0,0,52.64,144.82Z" transform="translate(-1.64 -2.15)"/><path class="cls-1" d="M52.64,142.12v1.35H54v-1.35A7.59,7.59,0,0,0,52.64,142.12Z" transform="translate(-1.64 -2.15)"/><path class="cls-1" d="M55.34,144.82v1.35h1.35v-1.35A7.59,7.59,0,0,0,55.34,144.82Z" transform="translate(-1.64 -2.15)"/><path class="cls-1" d="M52.64,139.42v1.35H54v-1.35A7.59,7.59,0,0,0,52.64,139.42Z" transform="translate(-1.64 -2.15)"/><path class="cls-1" d="M55.34,139.42v1.35h1.35v-1.35A7.59,7.59,0,0,0,55.34,139.42Z" transform="translate(-1.64 -2.15)"/><path class="cls-1" d="M51.29,136.71v1.35h1.35v-1.35A8.67,8.67,0,0,0,51.29,136.71Z" transform="translate(-1.64 -2.15)"/><path class="cls-1" d="M54,135.36v1.35h1.35v-1.35A8.67,8.67,0,0,0,54,135.36Z" transform="translate(-1.64 -2.15)"/><path class="cls-1" d="M56.69,132.66V134H58v-1.35A8.67,8.67,0,0,0,56.69,132.66Z" transform="translate(-1.64 -2.15)"/><path class="cls-1" d="M52.64,132.66V134H54v-1.35A8.67,8.67,0,0,0,52.64,132.66Z" transform="translate(-1.64 -2.15)"/><path class="cls-1" d="M37.78,124.56v1.35h1.35v-1.35A7.6,7.6,0,0,0,37.78,124.56Z" transform="translate(-1.64 -2.15)"/><path class="cls-1" d="M36.43,120.51v1.35h1.35v-1.35A7.6,7.6,0,0,0,36.43,120.51Z" transform="translate(-1.64 -2.15)"/><path class="cls-1" d="M39.13,121.86v1.35h1.35v-1.35A7.6,7.6,0,0,0,39.13,121.86Z" transform="translate(-1.64 -2.15)"/><path class="cls-1" d="M43.19,124.56v1.35h1.35v-1.35A7.59,7.59,0,0,0,43.19,124.56Z" transform="translate(-1.64 -2.15)"/><path class="cls-1" d="M44.54,123.21v1.35h1.35v-1.35A7.59,7.59,0,0,0,44.54,123.21Z" transform="translate(-1.64 -2.15)"/><path class="cls-1" d="M43.19,120.51v1.35h1.35v-1.35A7.59,7.59,0,0,0,43.19,120.51Z" transform="translate(-1.64 -2.15)"/><path class="cls-1" d="M47.24,121.86v1.35h1.35v-1.35A7.59,7.59,0,0,0,47.24,121.86Z" transform="translate(-1.64 -2.15)"/><path class="cls-1" d="M49.94,120.51v1.35h1.35v-1.35A7.59,7.59,0,0,0,49.94,120.51Z" transform="translate(-1.64 -2.15)"/><path class="cls-1" d="M51.29,123.21v1.35h1.35v-1.35A7.59,7.59,0,0,0,51.29,123.21Z" transform="translate(-1.64 -2.15)"/><path class="cls-1" d="M47.24,124.56v1.35h1.35v-1.35A7.59,7.59,0,0,0,47.24,124.56Z" transform="translate(-1.64 -2.15)"/><path class="cls-1" d="M54,121.86v1.35h1.35v-1.35A7.59,7.59,0,0,0,54,121.86Z" transform="translate(-1.64 -2.15)"/><path class="cls-1" d="M55.34,123.21v1.35h1.35v-1.35A7.59,7.59,0,0,0,55.34,123.21Z" transform="translate(-1.64 -2.15)"/><path class="cls-1" d="M52.64,127.26v1.35H54v-1.35A7.59,7.59,0,0,0,52.64,127.26Z" transform="translate(-1.64 -2.15)"/><path class="cls-1" d="M55.34,125.91v1.35h1.35v-1.35A7.59,7.59,0,0,0,55.34,125.91Z" transform="translate(-1.64 -2.15)"/><path class="cls-1" d="M48.59,125.91v1.35h2.7v-1.35S48.43,125.83,48.59,125.91Z" transform="translate(-1.64 -2.15)"/><path class="cls-1" d="M55.34,130H54v2.7h1.35S55.42,129.81,55.34,130Z" transform="translate(-1.64 -2.15)"/></g><g id="water"><path class="cls-1" d="M575.93,46.91h1.35V45.56h1.35V44.21H580V42.86h1.35V41.51h4v1.35h1.35v1.35h2.7v1.35h2.7V44.21h2.71V42.86h2.7V41.51h2.7v1.35h-2.7v1.35h-2.7v1.35h-2.71v1.35h-2.7V45.56h-2.7V44.21h-1.35V42.86h-4v1.35H580v1.35h-1.35v1.35h-1.35v1.35h-1.35Z" transform="translate(-1.64 -2.15)"/><path class="cls-1" d="M575.93,52.31v1.35h1.35V52.31h1.35V51H580V49.61h1.35V48.26h1.35V46.91h2.7v1.35h1.35v1.35h2.7V51h2.7V49.61h2.71V48.26h2.7V46.91h2.7V45.56h-2.7v1.35h-2.7v1.35h-2.71v1.35h-2.7V48.26h-2.7V46.91h-1.35V45.56h-2.7v1.35h-1.35v1.35H580v1.35h-1.35V51h-1.35v1.35S575.93,52.33,575.93,52.31Z" transform="translate(-1.64 -2.15)"/></g><g id="arrows"><rect class="cls-2" x="365.98" y="207.83" width="63.47" height="34.44"/><rect class="cls-2" x="463.21" y="28.89" width="63.47" height="34.44"/><rect class="cls-2" x="557.74" y="28.89" width="63.47" height="34.44"/><rect x="527.02" y="44.76" width="31.06" height="2.7"/><polygon class="cls-3" points="491.71 84.94 501.63 84.94 496.77 73.78 491.71 84.94"/><polygon class="cls-3" points="579.7 12.13 575.88 18.85 585.3 19.85 579.7 12.13"/><polygon class="cls-3" points="479.02 192.74 475.2 199.46 484.62 200.46 479.02 192.74"/><polygon class="cls-3" points="166.28 90.34 176.21 90.34 171.35 79.18 166.28 90.34"/><polygon class="cls-3" points="374.85 88.31 366.47 93.25 376.13 100.25 374.85 88.31"/><polygon class="cls-3" points="313.06 69.6 304.69 74.54 314.34 81.54 313.06 69.6"/><polygon class="cls-3" points="244.7 47.72 237.22 53.93 247.86 59.3 244.7 47.72"/><polygon class="cls-3" points="161.45 204.35 154.19 207.6 161.39 214.17 161.45 204.35"/><polygon class="cls-3" points="112.16 190.32 104.9 193.57 112.1 200.14 112.16 190.32"/><polygon class="cls-3" points="1.96 135.99 8.7 131.76 0.65 126.26 1.96 135.99"/><path class="cls-4" d="M496.63,23c.21-.42,21.23-19.09,42.54-19.3,22.28-.22,46.06,17.7,46.06,17.7" transform="translate(-1.64 -2.15)"/><path class="cls-4" d="M325.84,66.87c33.69,4.69,46.48,26,46.48,26" transform="translate(-1.64 -2.15)"/><path class="cls-4" d="M259.59,55.42c40.49.79,50.72,18.7,50.72,18.7" transform="translate(-1.64 -2.15)"/><path class="cls-4" d="M189.38,37c37.52-1.71,53.73,15.78,53.73,15.78" transform="translate(-1.64 -2.15)"/><path class="cls-4" d="M395.94,202.71c.21-.42,21.23-19.09,42.54-19.3,22.28-.22,46.06,17.7,46.06,17.7" transform="translate(-1.64 -2.15)"/><path class="cls-4" d="M127.54,200.78c35-6.4,33.69,11.94,33.69,11.94" transform="translate(-1.64 -2.15)"/><path class="cls-4" d="M73.69,173.88c33-.82,38.5,25.62,38.5,25.62" transform="translate(-1.64 -2.15)"/><path class="cls-4" d="M6.86,136c.41.21,17.11,22.18,17.05,43.49C23.86,201.73,3,226.36,3,226.36" transform="translate(-1.64 -2.15)"/><line class="cls-4" x1="170.85" y1="90" x2="172.13" y2="213.57"/><line class="cls-4" x1="496.97" y1="81.9" x2="498.25" y2="193.98"/></g></svg>