<svg id="Layer_2" data-name="Layer 2" xmlns="http://www.w3.org/2000/svg" viewBox="0 0 65 64"><defs><style>.cls-1{fill:blue;}</style></defs><title>fertilize-icon</title><rect class="cls-1" x="4" y="7" width="3" height="3"/><rect class="cls-1" y="14" width="3" height="3"/><rect class="cls-1" x="7" y="14" width="3" height="3"/><rect class="cls-1" y="24" width="3" height="3"/><rect class="cls-1" x="7" y="24" width="3" height="3"/><rect class="cls-1" x="7" y="31" width="3" height="3"/><rect class="cls-1" x="11" y="34" width="3" height="3"/><rect class="cls-1" y="34" width="3" height="3"/><rect class="cls-1" x="4" y="41" width="3" height="3"/><rect class="cls-1" y="48" width="3" height="3"/><rect class="cls-1" x="7" y="48" width="3" height="3"/><rect class="cls-1" x="4" y="54" width="3" height="4"/><rect class="cls-1" y="60" width="3" height="4"/><rect class="cls-1" x="14" y="54" width="3" height="4"/><rect class="cls-1" x="7" y="60" width="3" height="4"/><rect class="cls-1" x="17" y="60" width="3" height="4"/><rect class="cls-1" x="24" y="57" width="3" height="3"/><rect class="cls-1" x="35" y="54" width="3" height="4"/><path class="cls-1" d="M31,60.14V64h3V60.14C34.31,60.14,30.71,59.94,31,60.14Z"/><rect class="cls-1" x="41" y="54" width="3" height="4"/><rect class="cls-1" x="45" y="61" width="3" height="3"/><rect class="cls-1" x="52" y="61" width="3" height="3"/><rect class="cls-1" x="52" y="55" width="3" height="3"/><rect class="cls-1" x="58" y="61" width="3" height="3"/><rect class="cls-1" x="52" y="48" width="3" height="3"/><rect class="cls-1" x="58" y="48" width="3" height="3"/><rect class="cls-1" x="48" y="41" width="3" height="3"/><rect class="cls-1" x="55" y="38" width="3" height="3"/><rect class="cls-1" x="62" y="31" width="3" height="3"/><rect class="cls-1" x="52" y="31" width="3" height="3"/><rect class="cls-1" x="14" y="10" width="3" height="3"/><rect class="cls-1" x="11" width="3" height="3"/><path class="cls-1" d="M17,3.17V7h3V3.17A15.29,15.29,0,0,0,17,3.17Z"/><rect class="cls-1" x="28" y="10" width="3" height="3"/><rect class="cls-1" x="31" y="7" width="3" height="3"/><rect class="cls-1" x="28" width="3" height="3"/><path class="cls-1" d="M38,3.17V7h3V3.17C41.13,3.17,37.53,3,38,3.17Z"/><rect class="cls-1" x="45" width="3" height="3"/><rect class="cls-1" x="48" y="7" width="3" height="3"/><rect class="cls-1" x="38" y="10" width="3" height="3"/><path class="cls-1" d="M55,3.17V7h3V3.17C58.18,3.17,54.57,3,55,3.17Z"/><rect class="cls-1" x="58" y="7" width="3" height="3"/><rect class="cls-1" x="52" y="17" width="3" height="3"/><rect class="cls-1" x="58" y="14" width="3" height="3"/><rect class="cls-1" x="41" y="14" width="7" height="3"/><rect class="cls-1" x="55" y="24" width="3" height="7"/></svg>