<svg xmlns="http://www.w3.org/2000/svg" viewBox="0 0 38 38.05"><defs><style>.cls-1{fill:blue;}</style></defs><title>Asset 2</title><g id="Layer_2" data-name="Layer 2"><g id="fertilize"><path class="cls-1" d="M2,4.05v2H4v-2A12.12,12.12,0,0,0,2,4.05Z"/><path class="cls-1" d="M0,8.05v2H2v-2A12.12,12.12,0,0,0,0,8.05Z"/><path class="cls-1" d="M4,8.05v2H6v-2A12.12,12.12,0,0,0,4,8.05Z"/><path class="cls-1" d="M0,14.05v2H2v-2A12.12,12.12,0,0,0,0,14.05Z"/><path class="cls-1" d="M4,14.05v2H6v-2A12.12,12.12,0,0,0,4,14.05Z"/><path class="cls-1" d="M4,18.05v2H6v-2A12.12,12.12,0,0,0,4,18.05Z"/><path class="cls-1" d="M6,20.05v2H8v-2A12.12,12.12,0,0,0,6,20.05Z"/><path class="cls-1" d="M0,20.05v2H2v-2A12.12,12.12,0,0,0,0,20.05Z"/><path class="cls-1" d="M2,24.05v2H4v-2A12.12,12.12,0,0,0,2,24.05Z"/><path class="cls-1" d="M0,28.05v2H2v-2A12.12,12.12,0,0,0,0,28.05Z"/><path class="cls-1" d="M4,28.05v2H6v-2A12.12,12.12,0,0,0,4,28.05Z"/><path class="cls-1" d="M2,32.05v2H4v-2A12.12,12.12,0,0,0,2,32.05Z"/><path class="cls-1" d="M0,36.05v2H2v-2A12.12,12.12,0,0,0,0,36.05Z"/><path class="cls-1" d="M8,32.05v2h2v-2A12.12,12.12,0,0,0,8,32.05Z"/><path class="cls-1" d="M4,36.05v2H6v-2A12.12,12.12,0,0,0,4,36.05Z"/><path class="cls-1" d="M10,36.05v2h2v-2A12.12,12.12,0,0,0,10,36.05Z"/><path class="cls-1" d="M14,34.05v2h2v-2A12.12,12.12,0,0,0,14,34.05Z"/><path class="cls-1" d="M20,32.05v2h2v-2A12.12,12.12,0,0,0,20,32.05Z"/><path class="cls-1" d="M18,36.05v2h2v-2A12.12,12.12,0,0,0,18,36.05Z"/><path class="cls-1" d="M24,32.05v2h2v-2A12.12,12.12,0,0,0,24,32.05Z"/><path class="cls-1" d="M26,36.05v2h2v-2A12.12,12.12,0,0,0,26,36.05Z"/><path class="cls-1" d="M30,36.05v2h2v-2A12.12,12.12,0,0,0,30,36.05Z"/><path class="cls-1" d="M30,32.05v2h2v-2A12.12,12.12,0,0,0,30,32.05Z"/><path class="cls-1" d="M34,36.05v2h2v-2A12.12,12.12,0,0,0,34,36.05Z"/><path class="cls-1" d="M30,28.05v2h2v-2A12.12,12.12,0,0,0,30,28.05Z"/><path class="cls-1" d="M34,28.05v2h2v-2A12.12,12.12,0,0,0,34,28.05Z"/><path class="cls-1" d="M28,24.05v2h2v-2A12.12,12.12,0,0,0,28,24.05Z"/><path class="cls-1" d="M32,22.05v2h2v-2A12.12,12.12,0,0,0,32,22.05Z"/><path class="cls-1" d="M36,18.05v2h2v-2A12.12,12.12,0,0,0,36,18.05Z"/><path class="cls-1" d="M30,18.05v2h2v-2A12.12,12.12,0,0,0,30,18.05Z"/><path class="cls-1" d="M8,6.05v2h2v-2A12.12,12.12,0,0,0,8,6.05Z"/><path class="cls-1" d="M6,.05v2H8v-2A12.12,12.12,0,0,0,6,.05Z"/><path class="cls-1" d="M10,2.05v2h2v-2A12.12,12.12,0,0,0,10,2.05Z"/><path class="cls-1" d="M16,6.05v2h2v-2A12.12,12.12,0,0,0,16,6.05Z"/><path class="cls-1" d="M18,4.05v2h2v-2A12.12,12.12,0,0,0,18,4.05Z"/><path class="cls-1" d="M16,.05v2h2v-2A12.12,12.12,0,0,0,16,.05Z"/><path class="cls-1" d="M22,2.05v2h2v-2A12.12,12.12,0,0,0,22,2.05Z"/><path class="cls-1" d="M26,.05v2h2v-2A12.12,12.12,0,0,0,26,.05Z"/><path class="cls-1" d="M28,4.05v2h2v-2A12.12,12.12,0,0,0,28,4.05Z"/><path class="cls-1" d="M22,6.05v2h2v-2A12.12,12.12,0,0,0,22,6.05Z"/><path class="cls-1" d="M32,2.05v2h2v-2A12.12,12.12,0,0,0,32,2.05Z"/><path class="cls-1" d="M34,4.05v2h2v-2A12.12,12.12,0,0,0,34,4.05Z"/><path class="cls-1" d="M30,10.05v2h2v-2A12.12,12.12,0,0,0,30,10.05Z"/><path class="cls-1" d="M34,8.05v2h2v-2A12.12,12.12,0,0,0,34,8.05Z"/><path class="cls-1" d="M24,8.05v2h4v-2S23.78,7.94,24,8.05Z"/><path class="cls-1" d="M33.92,14.11h-2v4h2S34,13.88,33.92,14.11Z"/></g></g></svg>