<svg id="fertilize" xmlns="http://www.w3.org/2000/svg" viewBox="0 0 32 30"><defs><style>.cls-1{fill:blue;}</style></defs><title>fertilizer</title><rect class="cls-1" x="8" y="5" width="2" height="2"/><rect class="cls-1" x="16" y="6" width="2" height="2"/><rect class="cls-1" x="3" y="10" width="2" height="2"/><rect class="cls-1" x="4" y="6" width="2" height="2"/><rect class="cls-1" y="6" width="2" height="2"/><rect class="cls-1" x="9" y="1" width="2" height="2"/><rect class="cls-1" x="4" y="2" width="2" height="2"/><rect class="cls-1" x="14" y="1" width="2" height="2"/><rect class="cls-1" x="18" y="2" width="2" height="2"/><rect class="cls-1" x="20" y="5" width="2" height="2"/><rect class="cls-1" x="22" width="2" height="2"/><rect class="cls-1" x="26" y="1" width="2" height="2"/><rect class="cls-1" x="24" y="4" width="2" height="2"/><rect class="cls-1" x="1" y="1" width="2" height="2"/><rect class="cls-1" y="12" width="2" height="2"/><rect class="cls-1" x="1" y="16" width="2" height="2"/><rect class="cls-1" x="6" y="20" width="2" height="2"/><rect class="cls-1" x="4" y="15" width="2" height="2"/><rect class="cls-1" x="29" y="4" width="2" height="2"/><rect class="cls-1" x="29" y="7" width="2" height="2"/><rect class="cls-1" x="25" y="8" width="2" height="2"/><rect class="cls-1" x="24" y="14" width="2" height="2"/><rect class="cls-1" x="30" y="18" width="2" height="2"/><rect class="cls-1" x="30" y="14" width="2" height="2"/><rect class="cls-1" x="25" y="18" width="2" height="2"/><rect class="cls-1" x="23" y="21" width="2" height="2"/><rect class="cls-1" x="28" y="24" width="2" height="2"/><rect class="cls-1" y="20" width="2" height="2"/><rect class="cls-1" x="3" y="22" width="2" height="2"/><rect class="cls-1" x="2" y="25" width="2" height="2"/><rect class="cls-1" x="7" y="25" width="2" height="2"/><rect class="cls-1" x="5" y="27" width="2" height="2"/><rect class="cls-1" x="1" y="28" width="2" height="2"/><rect class="cls-1" x="11" y="23" width="2" height="2"/><rect class="cls-1" x="9" y="28" width="2" height="2"/><rect class="cls-1" x="13" y="27" width="2" height="2"/><rect class="cls-1" x="17" y="25" width="2" height="2"/><rect class="cls-1" x="16" y="28" width="2" height="2"/><rect class="cls-1" x="21" y="24" width="2" height="2"/><rect class="cls-1" x="29" y="28" width="2" height="2"/><rect class="cls-1" x="24" y="25" width="2" height="2"/><rect class="cls-1" x="25" y="28" width="2" height="2"/><rect class="cls-1" x="21" y="28" width="2" height="2"/><rect class="cls-1" x="27" y="11" width="2" height="4"/><rect class="cls-1" x="11" y="4" width="4" height="2"/><rect class="cls-1" x="6" y="10" width="2" height="4"/><rect class="cls-1" x="27" y="21" width="4" height="2"/></svg>