<svg xmlns="http://www.w3.org/2000/svg" viewBox="0 0 34.05 22"><defs><style>.cls-1{fill:blue;}</style></defs><title>Asset 4</title><g id="Layer_2" data-name="Layer 2"><g id="liquid_sunshine" data-name="liquid sunshine"><path class="cls-1" d="M10.05,0h2V2h-2A14.81,14.81,0,0,1,10.05,0Z"/><path class="cls-1" d="M14.09,0h4V2h-4S13.92-.09,14.09,0Z"/><path class="cls-1" d="M20.09,0h4V2h-4S19.92-.09,20.09,0Z"/><path class="cls-1" d="M24.05,2h2V4h-2A14.81,14.81,0,0,1,24.05,2Z"/><path class="cls-1" d="M28.05,4h2V6h-2A14.81,14.81,0,0,1,28.05,4Z"/><path class="cls-1" d="M30.05,6h2V8h-2A14.81,14.81,0,0,1,30.05,6Z"/><path class="cls-1" d="M32.05,10h2v4h-2S32,9.83,32.05,10Z"/><path class="cls-1" d="M28.05,16h2v2h-2A14.81,14.81,0,0,1,28.05,16Z"/><path class="cls-1" d="M26.05,18h2v2h-2A14.81,14.81,0,0,1,26.05,18Z"/><path class="cls-1" d="M20.13,20h3.92v2H20.13S20,19.91,20.13,20Z"/><path class="cls-1" d="M14.13,20h3.92v2H14.13S14,19.91,14.13,20Z"/><path class="cls-1" d="M10.05,20h2v2h-2A14.81,14.81,0,0,1,10.05,20Z"/><path class="cls-1" d="M8.05,18h2v2h-2A14.81,14.81,0,0,1,8.05,18Z"/><path class="cls-1" d="M4.05,16h2v2h-2A14.81,14.81,0,0,1,4.05,16Z"/><path class="cls-1" d="M2.05,14h2v2h-2A14.81,14.81,0,0,1,2.05,14Z"/><path class="cls-1" d="M4.05,4h2V6h-2A14.81,14.81,0,0,1,4.05,4Z"/><path class="cls-1" d="M6.05,2h2V4h-2A14.81,14.81,0,0,1,6.05,2Z"/><path class="cls-1" d="M0,8H2v4H0S0,7.82,0,8Z"/></g></g></svg>