<svg xmlns="http://www.w3.org/2000/svg" viewBox="0 0 29 18"><defs><style>.cls-1{fill:blue;}</style></defs><title>Asset 8</title><g id="Layer_2" data-name="Layer 2"><g id="liquid_sunshine" data-name="liquid sunshine"><rect class="cls-1" x="8" width="1" height="1"/><rect class="cls-1" x="11" width="4" height="1"/><rect class="cls-1" x="17" width="4" height="1"/><rect class="cls-1" x="22" y="1" width="1" height="1"/><rect class="cls-1" x="25" y="3" width="1" height="1"/><rect class="cls-1" x="27" y="5" width="1" height="1"/><rect class="cls-1" x="28" y="8" width="1" height="4"/><rect class="cls-1" x="26" y="13" width="1" height="1"/><rect class="cls-1" x="22" y="16" width="1" height="1"/><rect class="cls-1" x="17" y="17" width="4" height="1"/><rect class="cls-1" x="11" y="17" width="4" height="1"/><rect class="cls-1" x="9" y="17" width="1" height="1"/><rect class="cls-1" x="7" y="16" width="1" height="1"/><rect class="cls-1" x="3" y="14" width="1" height="1"/><rect class="cls-1" x="1" y="12" width="1" height="1"/><rect class="cls-1" x="3" y="3" width="1" height="1"/><rect class="cls-1" x="5" y="1" width="1" height="1"/><rect class="cls-1" y="6" width="1" height="4"/></g></g></svg>