<svg id="Layer_1" data-name="Layer 1" xmlns="http://www.w3.org/2000/svg" viewBox="0 0 52.48 31.95"><defs><style>.cls-1{fill:blue;}</style></defs><title>liquidsunshine-icon2</title><rect class="cls-1" x="15.97" width="2.28" height="2.28"/><rect class="cls-1" x="20.54" width="6.85" height="2.28"/><rect class="cls-1" x="29.66" width="6.85" height="2.28"/><rect class="cls-1" x="36.51" y="2.28" width="2.28" height="2.28"/><rect class="cls-1" x="43.36" y="4.56" width="2.28" height="2.28"/><rect class="cls-1" x="47.92" y="9.13" width="2.28" height="2.28"/><rect class="cls-1" x="50.2" y="13.69" width="2.28" height="6.85"/><rect class="cls-1" x="45.64" y="22.82" width="2.28" height="2.28"/><rect class="cls-1" x="38.79" y="27.38" width="2.28" height="2.28"/><rect class="cls-1" x="29.66" y="29.66" width="6.85" height="2.28"/><rect class="cls-1" x="20.54" y="29.66" width="6.85" height="2.28"/><rect class="cls-1" x="15.97" y="29.66" width="2.28" height="2.28"/><rect class="cls-1" x="11.41" y="27.38" width="2.28" height="2.28"/><rect class="cls-1" x="4.56" y="25.1" width="2.28" height="2.28"/><rect class="cls-1" x="2.28" y="20.54" width="2.28" height="2.28"/><rect class="cls-1" x="4.56" y="4.56" width="2.28" height="2.28"/><rect class="cls-1" x="9.13" y="2.28" width="2.28" height="2.28"/><rect class="cls-1" y="11.41" width="2.28" height="6.85"/></svg>