<svg id="Layer_1" data-name="Layer 1" xmlns="http://www.w3.org/2000/svg" viewBox="0 0 80.41 40"><defs><style>.cls-1{fill:blue;}</style></defs><title>water-icon</title><path class="cls-1" d="M0,17.73H4.54V13.2H9.07V9.07h4.54V4.54h4.53V0h13.2V4.54h4.54V8.66h8.66V13.2h9.07V9.07h9.07V4.54h8.66V0h9.07V4.54H71.75V9.07H62.68V13.2H53.61v4.53H45V13.2H35.88V9.07H31.34V4.54H18.14V9.07H13.61V13.2H9.07v4.53H4.54v4.54H0Z"/><path class="cls-1" d="M0,35.8V40H4.54V35.46H9.07V30.93h4.54V26.8h4.53V22.27h4.13V17.73h9.07v4.54h4.54V26.8h8.66v4.54h9.07V26.8h9.07V22.27h9.07V17.73h8.66V13.2H71.75v4.53H62.68v4.54H53.61V26.8H44.54V22.27H35.88V17.73H31.34V13.2H22.27v4.53H18.14v4.54H13.61V26.8H9.07v4.54H4.54V35.8S0,35.86,0,35.8Z"/></svg>