<svg id="Layer_1" data-name="Layer 1" xmlns="http://www.w3.org/2000/svg" width="621.21" height="242.57" viewBox="0 0 621.21 242.57"><defs><style>.cls-1,.cls-3{fill:none;}.cls-1,.cls-2,.cls-3{stroke:#000;stroke-miterlimit:10;}.cls-3{stroke-width:3px;}</style></defs><title>schematic</title><g id="arrows"><rect class="cls-1" x="366.71" y="208.07" width="63" height="34"/><rect class="cls-1" x="463.71" y="29.07" width="63" height="34"/><rect x="527.02" y="44.76" width="31.06" height="2.7"/><polygon class="cls-2" points="491.7 84.94 501.63 84.94 496.76 73.78 491.7 84.94"/><polygon class="cls-2" points="579.7 12.13 575.88 18.85 585.71 20.07 579.7 12.13"/><polygon class="cls-2" points="479.01 192.74 475.19 199.46 484.62 200.46 479.01 192.74"/><polygon class="cls-2" points="166.71 91.07 176.71 91.07 171.71 79.07 166.71 91.07"/><polygon class="cls-2" points="374.85 88.31 366.46 93.25 376.13 100.25 374.85 88.31"/><polygon class="cls-2" points="313.06 69.6 304.69 74.54 314.33 81.54 313.06 69.6"/><polygon class="cls-2" points="244.69 47.72 237.22 53.93 247.85 59.3 244.69 47.72"/><polygon class="cls-2" points="162.71 204.07 154.5 207.6 162.71 215.07 162.71 204.07"/><polygon class="cls-2" points="112.7 190.07 104.7 194.07 112.7 201.07 112.7 190.07"/><polygon class="cls-2" points="1.96 135.99 8.7 131.76 0.65 126.26 1.96 135.99"/><path class="cls-3" d="M495,20.8c.21-.42,21.22-19.08,42.54-19.3,22.27-.22,41.18,14.57,41.18,14.57" transform="translate(0 0)"/><path class="cls-3" d="M323.71,65.07c33.69,4.69,47,25.67,47,25.67" transform="translate(0 0)"/><path class="cls-3" d="M257.71,53.07c40,0,51,18.9,51,18.9" transform="translate(0 0)"/><path class="cls-3" d="M187.71,35.07c37.53-1.7,53.76,15.58,53.76,15.58" transform="translate(0 0)"/><path class="cls-3" d="M394.3,200.56c.21-.42,21.22-19.09,42.54-19.3,22.27-.22,40.87,14.81,40.87,14.81" transform="translate(0 0)"/><path class="cls-3" d="M126.71,196.07c29-1,32,10,32,10" transform="translate(0 0)"/><path class="cls-3" d="M72.71,174.07c30,0,36,18,36,18" transform="translate(0 0)"/><path class="cls-3" d="M5.21,133.81c.42.21,17.11,22.18,17.06,43.5-.06,22.27-20.9,46.91-20.9,46.91" transform="translate(0 0)"/><line class="cls-3" x1="171.71" y1="91.57" x2="171.71" y2="213.57"/><line class="cls-3" x1="496.71" y1="83.57" x2="496.71" y2="194.57"/><rect class="cls-1" x="557.71" y="29.07" width="63" height="34"/></g></svg>